<svg xmlns="http://www.w3.org/2000/svg" width="600" height="450" viewBox="0 0 600 450">
  <defs>
    <linearGradient id="bg" x1="0" y1="0" x2="1" y2="1">
      <stop offset="0" stop-color="#0a0a0a"/>
      <stop offset="1" stop-color="#141c0b"/>
    </linearGradient>
    <linearGradient id="ac" x1="0" y1="0" x2="1" y2="0">
      <stop offset="0" stop-color="#76b900"/>
      <stop offset="1" stop-color="#b6e84e"/>
    </linearGradient>
    <pattern id="grid" width="30" height="30" patternUnits="userSpaceOnUse">
      <path d="M30 0H0V30" fill="none" stroke="#76b900" stroke-opacity="0.08"/>
    </pattern>
  </defs>
  <rect width="600" height="450" fill="url(#bg)"/>
  <rect width="600" height="450" fill="url(#grid)"/>
  <g fill="none" stroke="url(#ac)" stroke-width="7" stroke-linejoin="round" stroke-linecap="round">
    <rect x="140" y="160" width="320" height="100" rx="6"/>
    <path d="M165 260v30M205 260v30M245 260v30M285 260v30M325 260v30M365 260v30M405 260v30M435 260v30"/>
    <rect x="170" y="185" width="50" height="50" rx="4"/>
    <rect x="245" y="185" width="50" height="50" rx="4"/>
    <rect x="320" y="185" width="50" height="50" rx="4"/>
    <rect x="395" y="185" width="40" height="50" rx="4"/>
  </g>
  <g fill="none" stroke="#76b900" stroke-opacity="0.3" stroke-width="16">
    <rect x="140" y="160" width="320" height="100" rx="6"/>
  </g>
  <text x="300" y="360" text-anchor="middle" font-family="monospace" font-size="22" fill="#76b900" fill-opacity="0.7" letter-spacing="6">JETSON MODULE</text>
</svg>
